<?xml version="1.0" standalone="no"?>
<!DOCTYPE svg PUBLIC "-//W3C//DTD SVG 20010904//EN"
 "http://www.w3.org/TR/2001/REC-SVG-20010904/DTD/svg10.dtd">
<svg version="1.0" xmlns="http://www.w3.org/2000/svg"
 width="481.000000pt" height="481.000000pt" viewBox="0 0 481.000000 481.000000"
 preserveAspectRatio="xMidYMid meet">
<metadata>
Created by potrace 1.14, written by Peter Selinger 2001-2017
</metadata>
<g transform="translate(0.000000,481.000000) scale(0.100000,-0.100000)"
fill="#000000" stroke="none">
<path d="M2362 4543 c-5 -10 -8 -162 -8 -337 l1 -319 23 -10 c44 -20 46 -6 48
311 3 354 1 372 -32 372 -13 0 -27 -8 -32 -17z"/>
<path d="M1950 4179 c-6 -11 -5 -34 5 -66 8 -26 14 -49 14 -51 -4 -12 57 -211
69 -224 17 -20 21 -21 40 -9 19 12 21 40 5 91 -8 25 -16 56 -19 69 -10 48 -46
176 -54 190 -11 21 -49 21 -60 0z"/>
<path d="M2781 4191 c-8 -5 -33 -82 -57 -171 -47 -175 -47 -202 0 -193 27 5
28 8 75 183 11 41 25 90 30 108 17 56 -10 97 -48 73z"/>
<path d="M1247 3772 c-22 -24 -12 -38 119 -169 87 -87 116 -111 132 -106 11 2
23 15 26 26 4 18 -18 45 -117 144 -68 68 -128 123 -133 123 -6 0 -18 -8 -27
-18z"/>
<path d="M3478 3770 c-33 -25 -211 -208 -221 -226 -12 -20 19 -55 41 -47 10 3
70 59 134 123 91 92 116 122 111 138 -7 28 -38 34 -65 12z"/>
<path d="M2378 3745 c-2 -1 -37 -5 -78 -9 -376 -32 -691 -234 -877 -562 -44
-78 -99 -212 -108 -264 -3 -18 -8 -36 -10 -40 -6 -10 -17 -96 -19 -147 0 -24
-4 -43 -8 -43 -4 0 -5 -6 -3 -12 2 -7 7 -58 9 -113 3 -55 8 -118 11 -140 16
-102 74 -271 125 -360 13 -22 28 -49 34 -60 18 -32 266 -381 290 -407 9 -10
14 -18 10 -18 -3 0 8 -24 24 -53 27 -49 61 -141 77 -212 9 -35 14 -88 19 -168
3 -62 21 -95 70 -131 24 -19 42 -21 168 -21 l141 0 1 69 c1 49 -2 70 -12 74
-8 2 -59 5 -115 6 l-102 1 -7 75 c-13 152 -43 255 -110 380 -32 62 -139 223
-175 265 -5 6 -40 55 -79 110 -163 232 -222 407 -222 655 0 127 15 230 43 303
8 20 13 37 10 37 -11 0 96 195 136 248 42 56 177 192 191 192 3 0 19 11 35 24
39 33 153 91 215 111 29 9 60 19 68 22 8 3 24 8 35 10 11 2 44 8 73 14 51 10
219 13 272 5 14 -3 43 -7 65 -11 162 -25 356 -127 485 -255 117 -115 227 -294
255 -416 2 -11 10 -39 16 -64 18 -67 18 -412 0 -445 -3 -5 -7 -18 -8 -28 -9
-56 -91 -256 -113 -277 -3 -3 -18 -25 -32 -50 -22 -38 -138 -202 -165 -235
-29 -34 -122 -175 -115 -175 4 0 3 -4 -3 -8 -24 -17 -81 -147 -106 -242 -14
-54 -24 -123 -31 -218 l-2 -32 -71 1 c-38 0 -89 0 -113 0 l-43 -1 2 -75 2 -74
126 1 c210 1 243 29 255 218 3 47 15 118 26 158 21 77 59 165 72 170 4 2 8 12
8 23 0 10 4 19 8 19 5 0 14 11 20 25 7 14 17 31 22 38 6 7 28 37 50 67 22 30
43 60 47 65 23 28 133 186 160 230 115 183 172 390 174 630 4 573 -441 1065
-1006 1111 -33 3 -72 7 -87 9 -15 1 -28 2 -30 0z"/>
<path d="M726 3598 c-14 -20 -14 -24 6 -45 12 -13 25 -23 28 -23 4 0 47 -24
96 -53 49 -29 121 -70 159 -91 39 -21 75 -42 80 -46 6 -4 26 -17 45 -28 19
-10 58 -33 85 -49 67 -40 101 -36 90 8 -6 23 -31 43 -100 79 -16 9 -115 66
-220 127 -268 155 -251 148 -269 121z"/>
<path d="M3979 3592 c-24 -14 -45 -29 -47 -34 -2 -4 -8 -8 -12 -8 -12 0 -293
-162 -301 -173 -3 -5 -8 -8 -10 -6 -2 1 -35 -15 -72 -37 -69 -39 -95 -77 -67
-94 18 -11 41 -1 182 81 68 39 152 87 188 107 36 19 67 39 68 44 2 4 8 8 14 8
6 0 36 16 67 35 89 55 84 50 72 73 -17 31 -35 32 -82 4z"/>
<path d="M2335 3192 c-71 -24 -111 -70 -127 -146 -18 -86 15 -163 87 -203 20
-11 20 -22 21 -533 l0 -521 -123 123 -123 123 0 67 c0 65 1 67 34 88 76 46
105 149 67 234 -33 76 -94 116 -173 116 -103 -1 -178 -73 -186 -179 -5 -71 13
-111 71 -162 l41 -36 1 -97 0 -96 195 -195 195 -195 0 -350 1 -350 -26 -1
c-14 0 -90 -2 -170 -3 -80 -1 -152 -6 -161 -10 -41 -18 -43 -84 -5 -115 24
-20 849 -19 873 0 37 32 35 85 -5 115 -10 7 -74 11 -171 12 -86 0 -163 1 -171
1 -13 1 -15 62 -15 497 l0 497 197 197 197 197 0 89 c0 59 4 90 11 92 30 10
80 67 93 105 30 91 -14 199 -98 240 -37 18 -120 19 -161 2 -17 -7 -47 -32 -66
-56 -50 -61 -58 -133 -23 -204 14 -29 39 -60 60 -74 33 -22 35 -27 35 -79 l0
-55 -117 -118 c-65 -65 -120 -116 -123 -114 -3 2 -5 168 -5 368 l0 366 35 23
c98 66 108 209 21 295 -45 45 -125 64 -186 45z m110 -145 c31 -44 10 -93 -44
-103 -37 -8 -65 13 -76 53 -16 67 80 107 120 50z m365 -367 c18 0 40 -33 40
-61 0 -54 -67 -86 -109 -52 -51 43 -14 134 47 117 8 -2 17 -4 22 -4z m-761
-285 c37 -35 0 -115 -53 -115 -32 0 -66 36 -66 69 0 58 75 87 119 46z"/>
<path d="M844 3072 c-20 -13 -23 -40 -6 -55 19 -16 282 -89 321 -89 23 0 41
16 41 39 0 13 -29 32 -58 38 -9 2 -78 20 -152 39 -74 20 -135 36 -135 36 0 0
-5 -4 -11 -8z"/>
<path d="M3895 3073 c-11 -3 -69 -18 -130 -35 -107 -29 -133 -36 -147 -37 -10
-1 -38 -31 -38 -41 0 -18 33 -40 50 -35 10 3 27 7 37 9 10 2 61 16 113 31 52
15 100 28 105 29 48 12 64 20 68 36 4 16 -21 52 -34 49 -2 -1 -13 -3 -24 -6z"/>
<path d="M1084 2319 c-30 -9 -56 -17 -57 -16 -8 2 -114 -27 -123 -34 -6 -5
-14 -6 -17 -2 -4 3 -13 0 -22 -7 -8 -7 -15 -9 -15 -4 0 5 -7 1 -15 -9 -27 -37
16 -74 65 -55 14 5 32 11 40 13 8 2 35 9 60 16 25 7 50 13 55 14 62 13 135 40
139 52 9 22 -12 52 -35 50 -12 -1 -45 -9 -75 -18z"/>
<path d="M3590 2321 c-18 -34 -1 -48 83 -71 45 -12 102 -28 127 -35 128 -38
166 -34 153 16 -6 20 -53 37 -238 84 -119 30 -112 30 -125 6z"/>
<path d="M1255 2017 c-11 -6 -48 -29 -83 -50 -34 -21 -73 -42 -85 -48 -12 -5
-35 -18 -52 -29 -16 -10 -46 -27 -65 -36 -19 -10 -42 -23 -50 -29 -8 -7 -37
-25 -65 -40 -143 -78 -157 -91 -129 -120 17 -17 54 -20 54 -5 0 6 4 10 10 10
5 0 55 27 110 60 55 33 102 60 104 60 2 0 55 30 117 68 63 37 125 73 139 80
52 27 63 40 56 66 -7 28 -28 32 -61 13z"/>
<path d="M3470 2020 c-17 -10 -5 -60 15 -60 8 0 15 -3 15 -7 0 -5 19 -17 43
-28 23 -11 44 -23 47 -26 3 -4 28 -19 55 -34 28 -14 79 -44 115 -66 36 -21 71
-39 78 -39 6 0 12 -4 12 -8 0 -4 26 -21 58 -37 31 -17 63 -36 70 -42 17 -17
58 -27 71 -18 19 11 13 53 -9 60 -11 3 -20 10 -20 15 0 4 -12 13 -27 19 -16 6
-43 20 -61 31 -114 70 -420 242 -433 245 -9 2 -22 0 -29 -5z"/>
<path d="M1351 1646 c-121 -122 -124 -126 -109 -148 10 -14 24 -22 34 -20 20
4 228 204 245 234 11 21 -8 58 -30 58 -9 0 -71 -56 -140 -124z"/>
<path d="M3261 1748 c-5 -13 -5 -30 0 -38 4 -8 57 -64 118 -123 85 -84 115
-108 133 -105 16 2 24 11 26 28 2 20 -19 46 -110 136 -123 122 -153 140 -167
102z"/>
<path d="M1994 617 c-13 -10 -26 -26 -29 -37 -7 -21 10 -59 33 -76 10 -7 133
-10 391 -9 207 1 379 3 383 4 4 0 16 11 27 23 24 25 21 62 -8 91 -19 19 -36
20 -397 21 -348 1 -379 0 -400 -17z"/>
<path d="M2041 373 c-32 -28 -35 -70 -6 -99 22 -22 32 -24 128 -24 100 0 104
-1 117 -25 13 -24 17 -25 112 -25 96 0 99 1 108 25 9 24 12 25 115 25 99 0
107 2 131 25 29 29 26 70 -7 98 -19 15 -52 17 -349 17 -298 0 -330 -2 -349
-17z"/>
</g>
</svg>
