<svg id="wave" style="transform:rotate(180deg); transition: 0.3s" viewBox="0 0 1440 480" version="1.1" xmlns="http://www.w3.org/2000/svg"><defs><linearGradient id="sw-gradient-0" x1="0" x2="0" y1="1" y2="0"><stop stop-color="rgba(147, 197, 253, 1)" offset="0%"></stop><stop stop-color="rgba(147, 197, 253, 1)" offset="100%"></stop></linearGradient></defs><path style="transform:translate(0, 0px); opacity:1" fill="url(#sw-gradient-0)" d="M0,96L80,104C160,112,320,128,480,112C640,96,800,48,960,24C1120,0,1280,0,1440,8C1600,16,1760,32,1920,64C2080,96,2240,144,2400,184C2560,224,2720,256,2880,280C3040,304,3200,320,3360,288C3520,256,3680,176,3840,144C4000,112,4160,128,4320,120C4480,112,4640,80,4800,72C4960,64,5120,80,5280,120C5440,160,5600,224,5760,232C5920,240,6080,192,6240,152C6400,112,6560,80,6720,88C6880,96,7040,144,7200,176C7360,208,7520,224,7680,200C7840,176,8000,112,8160,112C8320,112,8480,176,8640,232C8800,288,8960,336,9120,320C9280,304,9440,224,9600,200C9760,176,9920,208,10080,224C10240,240,10400,240,10560,248C10720,256,10880,272,11040,232C11200,192,11360,96,11440,48L11520,0L11520,480L11440,480C11360,480,11200,480,11040,480C10880,480,10720,480,10560,480C10400,480,10240,480,10080,480C9920,480,9760,480,9600,480C9440,480,9280,480,9120,480C8960,480,8800,480,8640,480C8480,480,8320,480,8160,480C8000,480,7840,480,7680,480C7520,480,7360,480,7200,480C7040,480,6880,480,6720,480C6560,480,6400,480,6240,480C6080,480,5920,480,5760,480C5600,480,5440,480,5280,480C5120,480,4960,480,4800,480C4640,480,4480,480,4320,480C4160,480,4000,480,3840,480C3680,480,3520,480,3360,480C3200,480,3040,480,2880,480C2720,480,2560,480,2400,480C2240,480,2080,480,1920,480C1760,480,1600,480,1440,480C1280,480,1120,480,960,480C800,480,640,480,480,480C320,480,160,480,80,480L0,480Z"></path></svg>